<svg xmlns="http://www.w3.org/2000/svg" width="356.484" height="356.484"><path d="M293.984 7.23h-231.484c-34.463 0-62.5 28.038-62.5 62.501v142.78c0 34.463 28.037 62.5 62.5 62.5l147.443.001 70.581 70.58c2.392 2.393 5.588 3.662 8.842 3.662 1.61 0 3.234-.312 4.78-.953 4.671-1.934 7.717-6.49 7.717-11.547v-62.237c30.759-3.885 54.621-30.211 54.621-62.006v-142.78c0-34.463-28.037-62.501-62.5-62.501zm37.5 205.282c0 20.678-16.822 37.5-37.5 37.5h-4.621c-6.903 0-12.5 5.598-12.5 12.5v44.064l-52.903-52.903c-2.344-2.345-5.522-3.661-8.839-3.661h-152.621c-20.678 0-37.5-16.822-37.5-37.5v-142.78c0-20.678 16.822-37.5 37.5-37.5h231.484c20.678 0 37.5 16.822 37.5 37.5v142.78zM270.242 95.743h-184c-6.903 0-12.5 5.596-12.5 12.5 0 6.903 5.597 12.5 12.5 12.5h184c6.903 0 12.5-5.597 12.5-12.5 0-6.904-5.596-12.5-12.5-12.5zM270.242 165.743h-184c-6.903 0-12.5 5.596-12.5 12.5s5.597 12.5 12.5 12.5h184c6.903 0 12.5-5.597 12.5-12.5s-5.596-12.5-12.5-12.5z"/></svg>