<svg xmlns="http://www.w3.org/2000/svg" viewBox="0 0 21.971 21.971" enable-background="new 0 0 21.971 21.971"><path d="M17.872 13.964c-1.272 0-2.394.606-3.127 1.534l-6.799-3.477c.089-.332.153-.675.153-1.036 0-.393-.076-.763-.182-1.123l6.769-3.461c.729.97 1.88 1.604 3.187 1.604 2.214 0 4.005-1.791 4.005-4.003 0-2.21-1.791-4.002-4.005-4.002-2.209 0-4.002 1.792-4.002 4.002 0 .362.064.706.154 1.039l-6.798 3.477c-.734-.929-1.858-1.537-3.132-1.537-2.212 0-4.002 1.793-4.002 4.004s1.79 4.003 4.002 4.003c1.309 0 2.459-.636 3.191-1.607l6.766 3.461c-.106.359-.183.732-.183 1.126 0 2.211 1.793 4.003 4.002 4.003 2.214 0 4.005-1.792 4.005-4.003.001-2.213-1.79-4.004-4.004-4.004z" fill="#010002"/></svg>