<svg xmlns="http://www.w3.org/2000/svg" viewBox="0 0 400.548 400.548" enable-background="new 0 0 400.548 400.548"><path d="M383.86 99.79c-10.104-4.184-21.731-1.873-29.466 5.86l-51.507 51.512v-31.397c0-22.359-18.13-40.491-40.493-40.491h-221.901c-22.362 0-40.493 18.132-40.493 40.491v149.018c0 22.359 18.131 40.491 40.493 40.491h221.901c22.363 0 40.493-18.132 40.493-40.491v-31.398l51.507 51.512c5.177 5.174 12.088 7.924 19.126 7.924 3.481 0 6.995-.678 10.34-2.063 10.099-4.185 16.688-14.042 16.688-24.978v-151.013c0-10.936-6.589-20.793-16.688-24.977zm-193.551 110.974l-55.191 42.403c-2.354 1.812-5.2 2.738-8.06 2.738-1.991 0-3.99-.448-5.846-1.363-4.519-2.226-7.38-6.825-7.38-11.865v-84.807c0-5.041 2.861-9.639 7.38-11.864 4.521-2.228 9.911-1.696 13.905 1.375l55.191 42.402c3.26 2.504 5.17 6.381 5.17 10.49.001 4.11-1.909 7.987-5.169 10.491z"/></svg>